<svg width="289" height="79" viewBox="0 0 289 79" fill="none" xmlns="http://www.w3.org/2000/svg">
<g clip-path="url(#clip0_3_2538)">
<path d="M32.9091 36.1819H13.8182V63.4546H32.9091V36.1819Z" fill="#161829"/>
<path d="M54.7273 19.8181H35.6364V63.4545H54.7273V19.8181Z" fill="#161829"/>
<path d="M76.5454 0.727295H57.4545V63.4546H76.5454V0.727295Z" fill="#6366F1"/>
<path d="M117.454 30.7275V63.4551H79.2725V8.90918H106.546L117.454 30.7275ZM88.8184 17.0908C88.0654 17.0908 87.4543 17.7011 87.4541 18.4541V29.3633C87.4541 30.1164 88.0652 30.7275 88.8184 30.7275H105.182C105.935 30.7275 106.546 30.1164 106.546 29.3633V18.4541C106.546 17.7011 105.935 17.0908 105.182 17.0908H88.8184Z" fill="#161829"/>
<path d="M2.90909 66.1819H128.364" stroke="#161829" stroke-width="4.09091" stroke-linecap="round"/>
<path d="M30.1818 78.4545C33.9474 78.4545 37 75.4019 37 71.6363C37 67.8707 33.9474 64.8181 30.1818 64.8181C26.4163 64.8181 23.3636 67.8707 23.3636 71.6363C23.3636 75.4019 26.4163 78.4545 30.1818 78.4545Z" fill="#161829"/>
<path d="M95.6364 78.4545C99.4019 78.4545 102.455 75.4019 102.455 71.6363C102.455 67.8707 99.4019 64.8181 95.6364 64.8181C91.8708 64.8181 88.8182 67.8707 88.8182 71.6363C88.8182 75.4019 91.8708 78.4545 95.6364 78.4545Z" fill="#161829"/>
</g>
<path d="M144.15 55V23.2645H150.86V49.468H164.465V55H144.15ZM196.836 39.1322C196.836 42.593 196.18 45.5372 194.868 47.9649C193.567 50.3926 191.79 52.2469 189.538 53.5279C187.296 54.7986 184.775 55.4339 181.976 55.4339C179.155 55.4339 176.624 54.7934 174.383 53.5124C172.141 52.2314 170.369 50.3771 169.068 47.9494C167.766 45.5217 167.115 42.5826 167.115 39.1322C167.115 35.6715 167.766 32.7273 169.068 30.2996C170.369 27.8719 172.141 26.0227 174.383 24.7521C176.624 23.4711 179.155 22.8306 181.976 22.8306C184.775 22.8306 187.296 23.4711 189.538 24.7521C191.79 26.0227 193.567 27.8719 194.868 30.2996C196.18 32.7273 196.836 35.6715 196.836 39.1322ZM190.034 39.1322C190.034 36.8905 189.698 35 189.026 33.4607C188.365 31.9215 187.43 30.7541 186.222 29.9587C185.013 29.1632 183.598 28.7655 181.976 28.7655C180.354 28.7655 178.939 29.1632 177.73 29.9587C176.521 30.7541 175.581 31.9215 174.91 33.4607C174.248 35 173.918 36.8905 173.918 39.1322C173.918 41.374 174.248 43.2645 174.91 44.8037C175.581 46.343 176.521 47.5103 177.73 48.3058C178.939 49.1012 180.354 49.499 181.976 49.499C183.598 49.499 185.013 49.1012 186.222 48.3058C187.43 47.5103 188.365 46.343 189.026 44.8037C189.698 43.2645 190.034 41.374 190.034 39.1322ZM222.85 33.5227C222.633 32.7686 222.328 32.1023 221.936 31.5238C221.543 30.9349 221.063 30.439 220.495 30.0362C219.937 29.6229 219.296 29.3079 218.573 29.0909C217.86 28.874 217.07 28.7655 216.202 28.7655C214.58 28.7655 213.155 29.1684 211.925 29.9742C210.706 30.78 209.756 31.9525 209.074 33.4917C208.392 35.0207 208.051 36.8905 208.051 39.1012C208.051 41.312 208.387 43.1921 209.059 44.7417C209.73 46.2913 210.681 47.4742 211.91 48.2903C213.139 49.0961 214.591 49.499 216.264 49.499C217.783 49.499 219.079 49.2304 220.154 48.6932C221.238 48.1457 222.065 47.376 222.633 46.3843C223.212 45.3926 223.501 44.22 223.501 42.8667L224.864 43.0682H216.683V38.0165H229.963V42.0145C229.963 44.8037 229.374 47.2004 228.196 49.2045C227.018 51.1983 225.396 52.7376 223.33 53.8223C221.264 54.8967 218.899 55.4339 216.233 55.4339C213.258 55.4339 210.644 54.7779 208.392 53.4659C206.14 52.1436 204.384 50.2686 203.124 47.8409C201.874 45.4029 201.249 42.5103 201.249 39.1632C201.249 36.5909 201.621 34.2975 202.364 32.2831C203.119 30.2583 204.172 28.5434 205.526 27.1384C206.879 25.7335 208.454 24.6643 210.252 23.9308C212.049 23.1973 213.997 22.8306 216.094 22.8306C217.891 22.8306 219.565 23.094 221.114 23.6209C222.664 24.1374 224.038 24.8709 225.236 25.8213C226.445 26.7717 227.432 27.9029 228.196 29.2149C228.96 30.5165 229.451 31.9525 229.668 33.5227H222.85Z" fill="#161829"/>
<path d="M241.712 23.2645V55H235.003V23.2645H241.712ZM259.211 43.9669H264.913L267.78 47.655L270.6 50.9401L275.916 57.6033H269.655L265.998 53.1095L264.123 50.4442L259.211 43.9669ZM276.396 39.1322C276.396 42.593 275.74 45.5372 274.428 47.9649C273.126 50.3926 271.349 52.2469 269.097 53.5279C266.856 54.7986 264.335 55.4339 261.535 55.4339C258.715 55.4339 256.184 54.7934 253.942 53.5124C251.701 52.2314 249.929 50.3771 248.627 47.9494C247.326 45.5217 246.675 42.5826 246.675 39.1322C246.675 35.6715 247.326 32.7273 248.627 30.2996C249.929 27.8719 251.701 26.0227 253.942 24.7521C256.184 23.4711 258.715 22.8306 261.535 22.8306C264.335 22.8306 266.856 23.4711 269.097 24.7521C271.349 26.0227 273.126 27.8719 274.428 30.2996C275.74 32.7273 276.396 35.6715 276.396 39.1322ZM269.593 39.1322C269.593 36.8905 269.257 35 268.586 33.4607C267.925 31.9215 266.99 30.7541 265.781 29.9587C264.573 29.1632 263.157 28.7655 261.535 28.7655C259.913 28.7655 258.498 29.1632 257.29 29.9587C256.081 30.7541 255.141 31.9215 254.469 33.4607C253.808 35 253.478 36.8905 253.478 39.1322C253.478 41.374 253.808 43.2645 254.469 44.8037C255.141 46.343 256.081 47.5103 257.29 48.3058C258.498 49.1012 259.913 49.499 261.535 49.499C263.157 49.499 264.573 49.1012 265.781 48.3058C266.99 47.5103 267.925 46.343 268.586 44.8037C269.257 43.2645 269.593 41.374 269.593 39.1322Z" fill="#6366F1"/>
<defs>
<clipPath id="clip0_3_2538">
<rect width="131" height="79" fill="white"/>
</clipPath>
</defs>
</svg>
