<svg width="131" height="79" viewBox="0 0 131 79" fill="none" xmlns="http://www.w3.org/2000/svg">
<g clip-path="url(#clip0_3_2498)">
<path d="M32.9091 36.1816H13.8182V63.4544H32.9091V36.1816Z" fill="#F6F4EE"/>
<path d="M54.7273 19.8184H35.6364V63.4547H54.7273V19.8184Z" fill="#F6F4EE"/>
<path d="M76.5454 0.727051H57.4545V63.4543H76.5454V0.727051Z" fill="#6366F1"/>
<path d="M117.454 30.7275V63.4551H79.2725V8.90918H106.546L117.454 30.7275ZM88.8184 17.0908C88.0654 17.0908 87.4543 17.7011 87.4541 18.4541V29.3633C87.4541 30.1164 88.0652 30.7275 88.8184 30.7275H105.182C105.935 30.7275 106.546 30.1164 106.546 29.3633V18.4541C106.546 17.7011 105.935 17.0908 105.182 17.0908H88.8184Z" fill="#F6F4EE"/>
<path d="M2.90909 66.1816H128.364" stroke="#F6F4EE" stroke-width="4.09091" stroke-linecap="round"/>
<path d="M30.1818 78.4547C33.9474 78.4547 37 75.4021 37 71.6365C37 67.871 33.9474 64.8184 30.1818 64.8184C26.4163 64.8184 23.3636 67.871 23.3636 71.6365C23.3636 75.4021 26.4163 78.4547 30.1818 78.4547Z" fill="#F6F4EE"/>
<path d="M95.6364 78.4547C99.4019 78.4547 102.455 75.4021 102.455 71.6365C102.455 67.871 99.4019 64.8184 95.6364 64.8184C91.8708 64.8184 88.8182 67.871 88.8182 71.6365C88.8182 75.4021 91.8708 78.4547 95.6364 78.4547Z" fill="#F6F4EE"/>
</g>
<defs>
<clipPath id="clip0_3_2498">
<rect width="131" height="79" fill="white"/>
</clipPath>
</defs>
</svg>
